/* XPM */
static char *emacs[] = {
/* columns rows colors chars-per-pixel */
"16 16 173 2 ",
"   c #4B276D",
".  c #4B266E",
"X  c #4C246D",
"o  c #4B286D",
"O  c #532773",
"+  c #522674",
"@  c #552675",
"#  c #542876",
"$  c #52317A",
"%  c #55317C",
"&  c #55317D",
"*  c #543580",
"=  c #573681",
"-  c #593782",
";  c #5A3883",
":  c #5A3A85",
">  c #5A3C86",
",  c #5A3A88",
"<  c #5C3C89",
"1  c #5E3E8B",
"2  c #622C86",
"3  c #652C88",
"4  c #68338F",
"5  c #603F8D",
"6  c #623F8F",
"7  c #73339A",
"8  c #5F418F",
"9  c #60408F",
"0  c #63408F",
"q  c #624390",
"w  c #654391",
"e  c #6D409A",
"r  c #6A539F",
"t  c #6C4FA0",
"y  c #7E43AD",
"u  c #6A54A0",
"i  c #6D55A2",
"p  c #6F5BA7",
"a  c #7750A8",
"s  c #725FAA",
"d  c #7E55B3",
"f  c #7E55B4",
"g  c #7E56B4",
"h  c #7E57B4",
"j  c #7E58B4",
"k  c #7E58B5",
"l  c #7E59B5",
"z  c #7E5AB5",
"x  c #7E5BB6",
"c  c #7E5CB6",
"v  c #7E5CB7",
"b  c #7E5DB7",
"n  c #7E61B8",
"m  c #7E6DB9",
"M  c #7F75BD",
"N  c #844CB5",
"B  c #844EB6",
"V  c #844FB7",
"C  c #8D41BA",
"Z  c #8B47BB",
"A  c #8F42BC",
"S  c #8F44BD",
"D  c #8D46BC",
"F  c #874CB8",
"G  c #884BB9",
"H  c #8B48BB",
"J  c #894ABA",
"K  c #9240BF",
"L  c #9142BE",
"P  c #914FBF",
"I  c #8251B5",
"U  c #8052B4",
"Y  c #8053B4",
"T  c #8152B5",
"R  c #8350B6",
"E  c #805DB7",
"W  c #835DB7",
"Q  c #805EB7",
"!  c #845CB7",
"~  c #805FB8",
"^  c #8E5BBC",
"/  c #8060B8",
"(  c #8061B8",
")  c #8063B9",
"_  c #8064BA",
"`  c #8165BA",
"'  c #8165BB",
"]  c #8166BB",
"[  c #8167BB",
"{  c #8861B9",
"}  c #8867BB",
"|  c #8169BC",
" . c #816ABC",
".. c #806FBD",
"X. c #816FBD",
"o. c #826EBD",
"O. c #8868BC",
"+. c #8171BE",
"@. c #8173BF",
"#. c #8174BF",
"$. c #8870BF",
"%. c #8078BF",
"&. c #9F61C6",
"*. c #8175C0",
"=. c #8276C0",
"-. c #8277C1",
";. c #8278C1",
":. c #827AC2",
">. c #827BC2",
",. c #817CC2",
"<. c #827CC3",
"1. c #837DC3",
"2. c #837EC4",
"3. c #837FC4",
"4. c #827FC5",
"5. c #8D78C3",
"6. c #8D7BC3",
"7. c #9273C1",
"8. c #9771C2",
"9. c #9177C2",
"0. c #977DC5",
"q. c #8380C4",
"w. c #8380C5",
"e. c #8381C5",
"r. c #8F80C5",
"t. c #9181C6",
"y. c #9486C8",
"u. c #978ECB",
"i. c #968ECC",
"p. c #988DCB",
"a. c #9C98CF",
"s. c #A687CB",
"d. c #AA95CF",
"f. c #AC96D0",
"g. c #A59AD1",
"h. c #A89FD3",
"j. c #ABA5D6",
"k. c #B1A4D6",
"l. c #B1A9D7",
"z. c #BFA5D9",
"x. c #BAACDA",
"c. c #C5A5DD",
"v. c #C6BDE1",
"b. c #C8B9E0",
"n. c #C9BDE1",
"m. c #D1BCE4",
"M. c #D0C6E5",
"N. c #D6D3EB",
"B. c #D9D3EB",
"V. c #DBD6EC",
"C. c #DEDAEE",
"Z. c #DFDAEE",
"A. c #E4D6EF",
"S. c #E1DBEF",
"D. c #E0DDEF",
"F. c #E3E0F1",
"G. c #E8E1F2",
"H. c #EEE8F5",
"J. c #EEE9F5",
"K. c #EEEBF6",
"L. c #F1ECF7",
"P. c #F0EEF7",
"I. c #F1EEF7",
"U. c #F3F0F8",
"Y. c #F3F1F9",
"T. c #FAF9FC",
"R. c #FAFAFD",
"E. c #FBFAFD",
"W. c #FCFBFD",
"Q. c #FCFCFD",
"!. c #FEFEFF",
"~. c white",
"^. c None",
/* pixels */
"^.^.^.^.^.^.- 1 < * ^.^.^.^.^.^.",
"^.^.^.^.8 s ,.w.1.M i , ^.^.^.^.",
"^.^.^.u q.e.3.<.i.l.p...q ^.^.^.",
"^.^.r e.e.2.>.u.h.C.Q.6.| 5 ^.^.",
"^.9 4.w.a.N.F.P.T.Y.Z.$.` n $ ^.",
"^.p 3.<.j.!.D.y.o. .[ _ ( Q 0 ^.",
"= %.>.;.*.g.K.v.5.] ) / E z a ^.",
"> :.-.#.+.t.k.S.R.n.O.c l g U o ",
": =.@.r.V.!.E.M.d.} x k d I B   ",
"& m X.B.~.U.9./ b z h Y R F y ^.",
"^.t  .x.!.I.f.7.W f T V G H 4 ^.",
"^.; ' ) 0.b.G.J.H.L.W.A.P A + ^.",
"^.^.w ~ v l { s.z.m.c.&.L 2 ^.^.",
"^.^.^.6 j ! 8.^ G Z S K 3 ^.^.^.",
"^.^.^.^.% e N J D C 7 @ ^.^.^.^.",
"^.^.^.^.^.^.. # O X ^.^.^.^.^.^."
};
