/* XPM */
static char *emacs[] = {
/* columns rows colors chars-per-pixel */
"32 32 122 2 ",
"   c #3E1E5D",
".  c #442161",
"X  c #492266",
"o  c #4A256B",
"O  c #4B286F",
"+  c #4D2772",
"@  c #4F2974",
"#  c #522774",
"$  c #532975",
"%  c #542D7D",
"&  c #5B297C",
"*  c #56317E",
"=  c #562D81",
"-  c #592E83",
";  c #573082",
":  c #5B3285",
">  c #5E338A",
",  c #5E388D",
"<  c #662E8A",
"1  c #6A2F8E",
"2  c #613D8C",
"3  c #6F3797",
"4  c #673A91",
"5  c #75339B",
"6  c #644292",
"7  c #684195",
"8  c #664897",
"9  c #664798",
"0  c #6D469C",
"q  c #67489A",
"w  c #6A4A9B",
"e  c #6B509F",
"r  c #754DA7",
"t  c #7C47AE",
"y  c #6D53A3",
"u  c #7158A6",
"i  c #755EAC",
"p  c #7E56B4",
"a  c #7E5AB5",
"s  c #7360AD",
"d  c #7764B1",
"f  c #7969B3",
"g  c #7E64B9",
"h  c #7D6DB9",
"j  c #843CAE",
"k  c #8B3EB7",
"l  c #923FBE",
"z  c #8144AE",
"x  c #854FB7",
"c  c #8D45BC",
"v  c #864CB8",
"b  c #894ABA",
"n  c #9142BE",
"m  c #8252B5",
"M  c #805EB7",
"N  c #8850B9",
"B  c #805FB8",
"V  c #9053BE",
"C  c #8163B9",
"Z  c #8964BB",
"A  c #816BBC",
"S  c #896CBE",
"D  c #8172BE",
"F  c #933FC0",
"G  c #9340C0",
"H  c #9857C2",
"J  c #9C5FC5",
"K  c #9567C1",
"L  c #9F67C7",
"P  c #8276C0",
"I  c #8877C1",
"U  c #827CC3",
"Y  c #8D7CC3",
"T  c #9372C0",
"R  c #9F77C7",
"E  c #907EC5",
"W  c #9D7DC5",
"Q  c #A17BC8",
"!  c #8381C5",
"~  c #9082C6",
"^  c #9B82C7",
"/  c #9D84C8",
"(  c #9B8CCB",
")  c #9D96CF",
"_  c #A288CA",
"`  c #AB8DCE",
"'  c #AC93CF",
"]  c #A49DD2",
"[  c #AB9DD3",
"{  c #BD9AD8",
"}  c #ACA2D5",
"|  c #B2A3D6",
" . c #BDA6D8",
".. c #B5ACD9",
"X. c #BDADDA",
"o. c #B6B2DC",
"O. c #BBB3DD",
"+. c #C7A7DE",
"@. c #C6AADD",
"#. c #C2B5DE",
"$. c #C3BBE1",
"%. c #CABCE1",
"&. c #C6C2E3",
"*. c #CCC5E5",
"=. c #CDC9E6",
"-. c #D5C1E6",
";. c #D2C9E7",
":. c #DBCDEA",
">. c #D7D1EA",
",. c #D9D6EC",
"<. c #DED9ED",
"1. c #E4D9EF",
"2. c #E5DEF0",
"3. c #E9DFF2",
"4. c #E7E4F3",
"5. c #EDE6F4",
"6. c #EDE9F5",
"7. c #F1ECF7",
"8. c #F3EEF8",
"9. c #F5F2FA",
"0. c #FFFEFF",
"q. c None",
/* pixels */
"q.q.q.q.q.q.q.q.q.q.q.q.q.q.q.q.q.q.q.q.q.q.q.q.q.q.q.q.q.q.q.q.",
"q.q.q.q.q.q.q.q.q.q.q.q.: > > , , : - * q.q.q.q.q.q.q.q.q.q.q.q.",
"q.q.q.q.q.q.q.q.q.= > y h ! ! ! U U U d 8 - $ q.q.q.q.q.q.q.q.q.",
"q.q.q.q.q.q.q.% > s ! ! ! ! ! U U U U U U D y % q.q.q.q.q.q.q.q.",
"q.q.q.q.q.q.- q U ! ! ! ! ! U U U U P P P P D h : @ q.q.q.q.q.q.",
"q.q.q.q.q.- u ! ! ! ! ! ! U U U ) O.,.4.*.~ D A h 6 @ q.q.q.q.q.",
"q.q.q.q.; u ! ! ! ! ! U U U ] &.=.=.<.0.0.9.I A A A 2 O q.q.q.q.",
"q.q.q.% q ! ! ! ! ! U U U U U P P P ] 9.0.0.[ A A A C * q.q.q.q.",
"q.q.q.> U ! ! ! ! U ] o.$.*.,.4.9.0.0.0.0.0.( A C C g a @ q.q.q.",
"q.q.% i ! ! ! U ! 6.0.0.0.0.0.0.0.9.6.2.>.[ A C C C C B , q.q.q.",
"q.q.> U ! ! U U ! 9.0.0.0.4...( D A A A C C C C C C B B p O q.q.",
"q.q.w ! ! U U U U } 0.0.0.( D D A A A A A C C C C B B a a * q.q.",
"q.; f U U U U P P P ] 9.0.8.} A A A C C C C C B M M a a a 7 . q.",
"q.: U U U U P P P D D Y &.0.0.6.| A A C C C M M a a a p a r o q.",
"q.: U U P P P h D D A D A Y #.8.0.7.| Z B B B a a a p p p p o q.",
"q.: U P P P P P D D E | *.2.5.6.0.0.0.6.^ B a a a a p p m m o q.",
"q.: P P P D D A ( >.0.0.0.0.0.0.<.X./ C a a a p p p m m x x o q.",
"q.- P P D D D O.0.0.0.0.0.5.| S C M M M a a a p p m m x x v o q.",
"q.- D D A D } 0.0.0.0.0.#.C C M M M a a a p p m m x x x b t X q.",
"q.% s D A A ;.0.0.0.0.*.C C M C a a a p p p m m m x x b b 3 . q.",
"q.q.7 A A A | 0.0.0.0.#.C M M M a a p p p x m x v v b c c # q.q.",
"q.q.% h A A C #.0.0.0.0.2.X._ S Z p p p p x x v b b b c c . q.q.",
"q.q.$ y C A C g W ;.0.0.0.0.0.0.0.0.0.0.8.8.1.+.V c c c <   q.q.",
"q.q.q.% g C C g g g Z ' %.1.6.5.5.2.1.2.0.0.0.8.L c n k X q.q.q.",
"q.q.q.+ 2 g C B B a a a a p p p m Q @.5.0.7.+.H c l l # q.q.q.q.",
"q.q.q.q.@ w B M a a a a M W @.:.8.4.-.{ L c n n n F < . q.q.q.q.",
"q.q.q.q.q.# 0 a a a p T ` ` Q K v b b b c c n n l 1 . q.q.q.q.q.",
"q.q.q.q.q.q.o 2 p p p p m m v v v c c c c n n l & . q.q.q.q.q.q.",
"q.q.q.q.q.q.q.o @ 0 m m x v v b c c c c G G 5 X   q.q.q.q.q.q.q.",
"q.q.q.q.q.q.q.q.q.o # 4 t v b c c c n z 1 X . q.q.q.q.q.q.q.q.q.",
"q.q.q.q.q.q.q.q.q.q.q.. o o # $ $ # X X q.q.q.q.q.q.q.q.q.q.q.q.",
"q.q.q.q.q.q.q.q.q.q.q.q.q.q.q.q.q.q.q.q.q.q.q.q.q.q.q.q.q.q.q.q."
};
